<?xml version="1.0" standalone="no"?>
<!DOCTYPE svg PUBLIC "-//W3C//DTD SVG 20010904//EN"
 "http://www.w3.org/TR/2001/REC-SVG-20010904/DTD/svg10.dtd">
<svg version="1.0" xmlns="http://www.w3.org/2000/svg"
 width="625.000000pt" height="625.000000pt" viewBox="0 0 625.000000 625.000000"
 preserveAspectRatio="xMidYMid meet">

<g transform="translate(0.000000,625.000000) scale(0.100000,-0.100000)" stroke="none">
<path d="M5140 5305 c-256 -13 -481 -28 -502 -34 -44 -14 -93 -67 -109 -121
-23 -76 -5 -107 164 -278 l152 -152 -988 -988 -987 -987 -467 466 c-420 419
-473 468 -517 483 -72 23 -161 21 -218 -7 -34 -16 -205 -179 -672 -642 -694
-689 -676 -668 -676 -795 0 -87 30 -148 111 -227 80 -77 137 -104 224 -104
119 0 111 -7 642 524 l483 482 462 -461 c308 -306 476 -467 503 -479 23 -11
70 -21 111 -23 133 -7 44 -87 1299 1168 622 622 1135 1130 1140 1130 6 0 66
-57 135 -126 165 -167 189 -184 254 -184 71 0 128 37 162 105 24 50 25 64 50
575 28 563 27 589 -19 639 -12 13 -40 32 -62 42 -50 23 -77 23 -675 -6z" fill="#1E40AF"/>
<path d="M4877 3372 l-417 -417 0 -1157 0 -1158 29 -32 29 -33 384 -3 c366 -2
384 -1 415 17 21 13 35 33 42 58 8 26 11 522 11 1559 l0 1520 -33 32 c-18 18
-35 32 -38 32 -2 0 -192 -188 -422 -418z" fill="#FACC15"/>
<path d="M3690 2185 c-228 -229 -430 -426 -447 -438 l-33 -22 0 -545 c0 -595
-2 -574 58 -599 20 -8 134 -11 406 -9 l378 3 29 33 29 32 0 980 c0 539 -1 980
-3 980 -1 0 -189 -187 -417 -415z" fill="#1E40AF"/>
<path d="M1952 1458 l3 -828 28 -27 27 -28 383 -3 c421 -2 419 -3 449 58 16
32 18 78 18 511 l0 477 -63 6 c-79 9 -182 45 -250 87 -28 18 -175 154 -325
303 l-272 271 2 -827z" fill="#FACC15"/>
<path d="M1370 2034 c-124 -124 -258 -255 -299 -290 -91 -78 -186 -128 -292
-150 l-79 -17 0 -469 c0 -303 4 -476 10 -489 26 -47 45 -49 440 -49 405 0 416
1 439 57 8 21 11 242 9 831 l-3 802 -225 -226z" fill="#1E40AF"/>
</g>
</svg>
